# xmcd CD database file
#
# Track frame offsets:
#	150
#	13135
#	30791
#	47099
#	59430
#	75491
#	95999
#	112125
#	125721
#	142583
#	161969
#	175597
#
# Disc length: 2480 seconds
#
# Revision: 0
# Processed by: cddbd v1.5.2PL0 Copyright (c) Steve Scherf et al.
# Submitted via: CDex 1.51
#
DISCID=9c09ae0c
DTITLE=Kelly Willis - Translated from Love
DYEAR=2007
DGENRE=Country
TTITLE0=Nobody Wants To Go The Moon Anymore
TTITLE1=Sweet Little One
TTITLE2=Don't Know Why
TTITLE3=Teddy Boys
TTITLE4=Loving You
TTITLE5=Too Much To Love
TTITLE6=The More  That I'm Around You
TTITLE7=Sweet Sundown
TTITLE8=Success
TTITLE9=Stone's Throw  Away
TTITLE10=I Must Be Lucky
TTITLE11=Translated From Love
EXTD=YEAR: 2007
EXTT0=
EXTT1=
EXTT2=
EXTT3=
EXTT4=
EXTT5=
EXTT6=
EXTT7=
EXTT8=
EXTT9=
EXTT10=
EXTT11=
PLAYORDER=
